# xmcd
# 
# Track frame offsets:
#     150
#     22099
#     41775
#     60604
#     88728
#     111185
#     139046
# 
# Disc length: 2203
# 
# Revision: 3
# Processed by: cddbd v1.5.2PL0 Copyright (c) Steve Scherf et al.
# Submitted via: fre:ac v1.0.31
# 
DISCID=5f089907
DTITLE=The Butterfield Blues Band - In My Own Dream
DYEAR=1968
DGENRE=Rock
TTITLE0=Last Hope's Gone
TTITLE1=Mine to Love
TTITLE2=Get Yourself Together
TTITLE3=Just to Be with You
TTITLE4=Morning Blues
TTITLE5=Drunk Again
TTITLE6=In My Own Dream
EXTD=YEAR: 1968
EXTT0=
EXTT1=
EXTT2=
EXTT3=
EXTT4=
EXTT5=
EXTT6=
PLAYORDER=
